# xmcd CD database file
#
# Track frame offsets:
#	150
#	14917
#	28026
#	49396
#	66454
#	81769
#	97678
#	111524
#	131937
#	150157
#	175289
#
# Disc length: 2702 seconds
#
# Revision: 0
# Processed by: cddbd v1.5.2PL0 Copyright (c) Steve Scherf et al.
# Submitted via: CDex 1.70beta2
#
DISCID=960a8c0b
DTITLE=Parov Stelar - The Demon Diaries cd 2
DYEAR=2015
DGENRE=Jazz
TTITLE0=parov stelar - six feet underground_feat. claudia kane
TTITLE1=parov stelar - the sun_feat. graham candy
TTITLE2=parov stelar - summertime_feat. maya bensalem
TTITLE3=parov stelar - walk away_feat. anna f.
TTITLE4=parov stelar - josephine_feat. lee anduze (candlelight version)
TTITLE5=parov stelar - magenta rising
TTITLE6=parov stelar - golden arrow_feat. lilja bloom (demon diaries version)
TTITLE7=parov stelar - don't believe what they say_feat. angela mc cluskey
TTITLE8=parov stelar - the sea_feat. harald baumgartner
TTITLE9=parov stelar - keep this fire burning (stelartronic remix)
TTITLE10=parov stelar - the lonely trumpet (the demon diaries outro)
EXTD=YEAR: 2015
EXTT0=
EXTT1=
EXTT2=
EXTT3=
EXTT4=
EXTT5=
EXTT6=
EXTT7=
EXTT8=
EXTT9=
EXTT10=
PLAYORDER=
